# AST/ASF file generated using VICON BodyLanguage
# -----------------------------------------------
:version 1.10
:name VICON
:units
  mass 1.0
  length 0.45
  angle deg
:documentation
   .ast/.asf automatically generated from VICON data using
   VICON BodyBuilder and BodyLanguage model FoxedUp or BRILLIANT.MOD
:root
   order TX TY TZ RX RY RZ
   axis XYZ
   position 0 0 0  
   orientation 0 0 0 
:bonedata
  begin
     id 1 
     name lhipjoint
     direction 0.560651 -0.75055 0.34978 
     length 2.44936 
     axis 0 0 0  XYZ
  end
  begin
     id 2 
     name lfemur
     direction 0.34202 -0.939693 0  
     length 7.42139  
     axis 0 0 20  XYZ
    dof rx ry rz
    limits (-160.0 20.0)
           (-70.0 70.0)
           (-60.0 70.0)
  end
  begin
     id 3 
     name ltibia
     direction 0.34202 -0.939693 0   
     length 7.75674   
     axis 0 0 20   XYZ
    dof rx
    limits (-10.0 170.0)
  end
  begin
     id 4 
     name lfoot
     direction 0.0925879 -0.254383 0.962661   
     length 2.38688   
     axis -90 7.62852e-016 20   XYZ
    dof rx rz
    limits (-45.0 90.0)
           (-70.0 20.0)
  end
  begin
     id 5 
     name ltoes
     direction 1.53567e-011 -4.21973e-011 1   
     length 1.19228   
     axis -90 7.62852e-016 20   XYZ
    dof rx
    limits (-90.0 20.0)
  end
  begin
     id 6 
     name rhipjoint
     direction -0.540087 -0.762838 0.355506   
     length 2.4099  
     axis 0 0 0  XYZ 
  end
  begin
     id 7 
     name rfemur
     direction -0.34202 -0.939693 0   
     length 7.70794   
     axis 0 0 -20   XYZ
    dof rx ry rz
    limits (-160.0 20.0)
           (-70.0 70.0)
           (-70.0 60.0)
  end
  begin
     id 8 
     name rtibia
     direction -0.34202 -0.939693 0   
     length 7.66106   
     axis 0 0 -20   XYZ
    dof rx
    limits (-10.0 170.0)
 end
 begin
     id 9 
     name rfoot
     direction -0.0830975 -0.228308 0.970036   
     length 2.4989  
     axis -90 -7.62852e-016 -20   XYZ
    dof rx rz
    limits (-45.0 90.0)
           (-20.0 70.0)
  end
  begin
     id 10 
     name rtoes
     direction -1.53517e-011 -4.21842e-011 1   
     length 1.2498   
     axis -90 -7.62852e-016 -20   XYZ
    dof rx
    limits (-90.0 20.0)
  end
  begin
     id 11 
     name lowerback
     direction 0.0266356 0.99402 -0.105896   
     length 2.1545   
     axis 0 0 0   XYZ
    dof rx ry rz
    limits (-20.0 45.0)
           (-30.0 30.0)
           (-30.0 30.0)
  end
  begin
     id 12 
     name upperback
     direction 0.0130547 0.999192 0.0380027   
     length 2.1434   
     axis 0 0 0   XYZ
    dof rx ry rz
    limits (-20.0 45.0)
           (-30.0 30.0)
           (-30.0 30.0)
  end
  begin
     id 13 
     name thorax
     direction 0.000590299 0.996288 0.0860764   
     length 2.19049   
     axis 0 0 0   XYZ
    dof rx ry rz
    limits (-20.0 45.0)
           (-30.0 30.0)
           (-30.0 30.0)
  end
  begin
     id 14 
     name lowerneck
     direction -0.0432125 0.978219 0.203028   
     length 1.62441   
     axis 0 0 0   XYZ
    dof rx ry rz
    limits (-20.0 45.0)
           (-30.0 30.0)
           (-30.0 30.0)
  end
  begin
     id 15 
     name upperneck
     direction -0.0192309 0.991699 -0.127138   
     length 1.66666   
     axis 0 0 0   XYZ
    dof rx ry rz
    limits (-20.0 45.0)
           (-30.0 30.0)
           (-30.0 30.0)
  end
  begin
     id 16
     name head
     direction -0.00434499 0.997882 -0.0649107  
     length 1.67142  
     axis 0 0 0   XYZ
    dof rx ry rz
    limits (-20.0 45.0)
           (-30.0 30.0)
           (-30.0 30.0)
  end
  begin
     id 17 
     name lclavicle
     direction 0.970351 0.240904 -0.0196058  
     length 4.04862  
     axis 0 0 0   XYZ
    dof ry rz
    limits (-20.0 10.0)
           (0.0 20.0)
  end
  begin
     id 18 
     name lhumerus
     direction 1 -4.4896e-011 -1.40911e-018   
     length 5.58345   
     axis 180 -30 -90   XYZ
    dof rx ry rz
    limits (-60.0 90.0)
           (-90.0 90.0)
           (-90.0 90.0)
  end
  begin
     id 19
     name lradius
     direction 1 -4.48968e-011 5.88912e-028   
     length 3.71087   
     axis 180 -30 -90   XYZ
    dof rx
    limits (-10.0 170.0)
  end
  begin
     id 20
     name lwrist
     direction 1 -4.48955e-011 -8.83775e-028   
     length 1.85544   
     axis 5.52448e-016 90 90   XYZ
    dof ry
    limits (-180.0 0.0)
 end
  begin
     id 21 
     name lhand
     direction 1 -4.49035e-011 -1.76755e-027   
     length 0.562322   
     axis 1.12785e-015 90 90   XYZ
    dof rx rz
    limits (-90.0 90.0)
           (-45.0 45.0)
  end
  begin
     id 22 
     name lfingers
     direction 1 -4.48824e-011 -3.5351e-027   
     length 0.453359   
     axis 2.2557e-015 90 90   XYZ
    dof rx
    limits (0.0 90.0)
  end
  begin
     id 23
     name lthumb
     direction 0.707107 -6.34888e-011 0.707107   
     length 0.650935   
     axis -90 45 2.85299e-015   XYZ
    dof rx rz
    limits (-45.0 45.0)
           (-45.0 45.0)
  end
  begin
     id 24 
     name rclavicle
     direction -0.96165 0.268562 -0.0557131   
     length 4.05446  
     axis 0 0 0   XYZ 
    dof ry rz
    limits (-10.0 20.0)
           (-20.0 0.0)
  end
  begin
     id 25 
     name rhumerus
     direction -1 -4.48957e-011 -3.36329e-027  
     length 5.20357   
     axis 180 30 90   XYZ
    dof rx ry rz
    limits (-90.0 60.0)
           (-90.0 90.0)
           (-90.0 90.0)
  end
  begin
     id 26 
     name rradius
     direction -1 -4.48974e-011 4.51441e-027   
     length 3.64937   
     axis 180 30 90   XYZ
    dof rx
    limits (-10.0 170.0)
  end
  begin
     id 27 
     name rwrist
     direction -1 -4.4896e-011 -8.83775e-028   
     length 1.82468   
     axis 5.52448e-016 -90 -90   XYZ
    dof ry
    limits (-180.0 0.0)
  end
  begin
     id 28
     name rhand
     direction -1 -4.48996e-011 -1.76755e-027   
     length 0.617996   
     axis 1.12785e-015 -90 -90   XYZ
    dof rx rz
    limits (-90.0 90.0)
           (-45.0 45.0)
  end
  begin
     id 29
     name rfingers
     direction -1 -4.48957e-011 -3.5351e-027   
     length 0.498244   
     axis 2.2557e-015 -90 -90   XYZ
    dof rx
    limits (0.0 90.0)
  end
  begin
     id 30
     name rthumb
     direction -0.707107 -6.34931e-011 0.707107   
     length 0.715382   
     axis -90 -45 -2.85299e-015   XYZ
    dof rx rz
    limits (-45.0 45.0)
           (-45.0 45.0)
  end
:hierarchy
  begin
    root lhipjoint rhipjoint lowerback
    lhipjoint lfemur
    lfemur ltibia
    ltibia lfoot
    lfoot ltoes
    rhipjoint rfemur
    rfemur rtibia
    rtibia rfoot
    rfoot rtoes
    lowerback upperback
    upperback thorax
    thorax lowerneck lclavicle rclavicle
    lowerneck upperneck
    upperneck head
    lclavicle lhumerus
    lhumerus lradius
    lradius lwrist
    lwrist lhand lthumb
    lhand lfingers
    rclavicle rhumerus
    rhumerus rradius
    rradius rwrist
    rwrist rhand rthumb
    rhand rfingers
  end

#!OML:ASF H:\ManfredETheater\Project 1\Capture day 2\Session 1\Male1.ASF
:FULLY-SPECIFIED
:DEGREES
95
root -0.924071 10.5813 1.04934 -13.9592 -22.3961 -225.356
lowerback 34.7987 -5.52941 2.48208
upperback 10.5819 -6.98171 -8.6523
thorax -7.36577 -2.90907 -7.91857
lowerneck -15.7336 -0.569116 -3.74246
upperneck 7.14402 2.11971 -18.8034
head 5.03739 -0.311676 -5.16567
rclavicle 1.01778e-013 6.36111e-014
rhumerus 6.31052 27.5919 -43.1118
rradius 123.074
rwrist 20.0565
rhand -32.0966 -9.0545
rfingers 7.12502
rthumb -5.34203 -38.9672
lclavicle 1.01778e-013 6.36111e-014
lhumerus 62.8366 -26.635 55.3825
lradius 92.9401
lwrist -13.5268
lhand -36.5355 -10.1206
lfingers 7.12502
lthumb -9.62652 19.6395
rfemur -82.4723 -21.2205 46.4445
rtibia 88.4792
rfoot 4.58182 7.8486
rtoes -22.368
lfemur -30.5241 16.8226 23.5728
ltibia 75.4435
lfoot 4.16324 -2.68987
ltoes -5.81704
96
root -1.12113 10.2855 0.642831 -12.3388 -19.9304 -225.682
lowerback 35.0087 -5.47726 2.14699
upperback 10.9225 -6.90694 -8.37249
thorax -6.97016 -2.82103 -7.47353
lowerneck -15.5173 -0.690086 -3.95095
upperneck 7.52672 2.06047 -18.7771
head 5.11354 -0.355374 -5.13238
rclavicle 4.33351e-014 -1.27222e-014
rhumerus 4.17278 27.5413 -46.3352
rradius 122.753
rwrist 20.6633
rhand -27.4358 -9.29875
rfingers 7.12502
rthumb -0.840984 -39.2768
lclavicle 4.33351e-014 -1.27222e-014
lhumerus 63.7693 -27.3274 54.4324
lradius 92.1927
lwrist -13.8681
lhand -37.1102 -9.96473
lfingers 7.12502
lthumb -10.1809 19.7689
rfemur -82.6284 -22.1764 47.2137
rtibia 90.3899
rfoot 6.82533 7.23661
rtoes -19.8537
lfemur -32.2195 17.9105 24.0773
ltibia 77.193
lfoot 3.75619 -2.4407
ltoes -5.58124
97
root -1.32093 9.98405 0.240212 -10.7736 -17.3997 -225.827
lowerback 35.2613 -5.42527 1.92092
upperback 11.2728 -6.79257 -8.09929
thorax -6.58837 -2.71231 -7.10998
lowerneck -15.3197 -0.820084 -4.0798
upperneck 7.94813 1.97794 -18.739
head 5.2032 -0.412031 -5.11185
rclavicle -1.90026e-013 0
rhumerus 2.09582 26.9143 -49.4592
rradius 122.413
rwrist 22.3316
rhand -23.2594 -9.93031
rfingers 7.12502
rthumb 3.19256 -39.8862
lclavicle -1.90026e-013 0
lhumerus 64.9221 -27.9528 53.3531
lradius 91.4445
lwrist -14.3798
lhand -37.5854 -9.59803
lfingers 7.12502
lthumb -10.6394 20.1126
rfemur -82.9119 -23.133 47.9387
rtibia 92.1984
rfoot 9.08485 6.54103
rtoes -16.8178
lfemur -33.9616 19.0175 24.3891
ltibia 78.9171
lfoot 3.6203 -2.23779
ltoes -5.2148
98
root -1.52308 9.67578 -0.158911 -9.24169 -14.8683 -225.782
lowerback 35.5315 -5.35138 1.79311
upperback 11.6313 -6.61494 -7.83702
thorax -6.20946 -2.57067 -6.83591
lowerneck -15.1587 -0.976981 -4.16211
upperneck 8.45496 1.8607 -18.6671
head 5.32257 -0.49151 -5.0941
rclavicle -4.37326e-014 -3.18055e-015
rhumerus 0.158 25.8262 -52.4241
rradius 122.112
rwrist 24.7358
rhand -20.8067 -10.5752
rfingers 7.12502
rthumb 5.561 -40.4822
lclavicle -4.37326e-014 -3.18055e-015
lhumerus 66.2569 -28.5147 52.1918
lradius 90.7152
lwrist -15.0483
lhand -37.9819 -9.06736
lfingers 7.12502
lthumb -11.0218 20.6233
rfemur -83.3206 -24.036 48.6355
rtibia 93.907
rfoot 11.3243 5.82402
rtoes -13.4769
lfemur -35.6842 20.1687 24.5258
ltibia 80.5863
lfoot 3.78301 -2.08262
ltoes -4.73804
99
root -1.72831 9.36063 -0.553828 -7.70802 -12.3435 -225.58
lowerback 35.7994 -5.27676 1.7972
upperback 11.983 -6.388 -7.56885
thorax -5.84523 -2.40265 -6.64471
lowerneck -15.0681 -1.17745 -4.27933
upperneck 9.10583 1.70868 -18.5077
head 5.49508 -0.599215 -5.05059
rclavicle -6.36111e-014 3.18055e-015
rhumerus -1.53297 24.4036 -55.117
rradius 121.822
rwrist 27.1471
rhand -19.7555 -11.1125
rfingers 7.12502
rthumb 6.5759 -40.9904
lclavicle -6.36111e-014 3.18055e-015
lhumerus 67.6564 -29.012 51.0506
lradius 90.0376
lwrist -15.8635
lhand -38.4063 -8.34719
lfingers 7.12502
lthumb -11.4311 21.3212
rfemur -83.861 -24.8918 49.3301
rtibia 95.5258
rfoot 13.493 5.11632
rtoes -9.9755
lfemur -37.3872 21.34 24.5106
ltibia 82.1846
lfoot 4.22495 -1.96157
ltoes -4.21085
100
root -1.93619 9.03853 -0.943833 -6.14609 -9.84686 -225.226
lowerback 36.0446 -5.1979 1.92063
upperback 12.3202 -6.11056 -7.2822
thorax -5.4934 -2.20765 -6.51643
lowerneck -15.0448 -1.42799 -4.45884
upperneck 9.90067 1.51888 -18.2775
head 5.72169 -0.737875 -4.98329
rclavicle -5.08889e-014 8.5875e-014
rhumerus -2.89879 22.711 -57.4542
rradius 121.556
rwrist 28.9709
rhand -19.8422 -11.5308
rfingers 7.12502
rthumb 6.49211 -41.4113
lclavicle -5.08889e-014 8.5875e-014
lhumerus 69.006 -29.4511 50.0545
lradius 89.434
lwrist -16.7424
lhand -38.8579 -7.60348
lfingers 7.12502
lthumb -11.8666 22.0403
rfemur -84.5367 -25.6706 50.0248
rtibia 97.0613
rfoot 15.5399 4.4713
rtoes -6.6601
lfemur -39.0539 22.5275 24.3512
ltibia 83.7005
lfoot 4.88306 -1.86179
ltoes -3.74008
101
root -2.14624 8.70908 -1.32829 -4.54482 -7.37448 -224.712
lowerback 36.2576 -5.11612 2.1496
upperback 12.6396 -5.78977 -6.97921
thorax -5.15312 -1.98868 -6.44285
lowerneck -15.0532 -1.72371 -4.68265
upperneck 10.8344 1.28554 -17.9614
head 5.99543 -0.905467 -4.89064
rclavicle 1.03368e-013 5.40694e-014
rhumerus -3.83462 20.8146 -59.3236
rradius 121.25
rwrist 29.6235
rhand -20.4921 -12.0984
rfingers 7.12502
rthumb 5.86471 -41.9972
lclavicle 1.03368e-013 5.40694e-014
lhumerus 70.2104 -29.887 49.2944
lradius 88.9182
lwrist -17.629
lhand -39.481 -6.58294
lfingers 7.12502
lthumb -12.4674 23.0252
rfemur -85.3358 -26.3777 50.7037
rtibia 98.5213
rfoot 17.3879 3.91862
rtoes -3.56859
lfemur -40.679 23.6936 24.037
ltibia 85.1265
lfoot 5.66155 -1.77277
ltoes -3.4383
102
root -2.35774 8.37228 -1.70643 -2.88419 -4.90121 -224.035
lowerback 36.4096 -5.04215 2.47357
upperback 12.9464 -5.44492 -6.67059
thorax -4.81113 -1.75438 -6.42306
lowerneck -15.0278 -2.07741 -4.95842
upperneck 11.8348 0.957357 -17.4876
head 6.27838 -1.11277 -4.74929
rclavicle 1.90833e-014 6.36111e-015
rhumerus -4.43061 18.8104 -60.7008
rradius 120.973
rwrist 29.0168
rhand -21.996 -12.7601
rfingers 7.12502
rthumb 4.41261 -42.6941
lclavicle 1.90833e-014 6.36111e-015
lhumerus 71.1881 -30.3694 48.8179
lradius 88.5173
lwrist -18.4218
lhand -40.0938 -5.43735
lfingers 7.12502
lthumb -13.0582 24.1339
rfemur -86.2648 -27.0337 51.3628
rtibia 99.9148
rfoot 18.962 3.47509
rtoes -0.732539
lfemur -42.2884 24.8005 23.5508
ltibia 86.4629
lfoot 6.45607 -1.69758
ltoes -3.35613
103
root -2.57028 8.02756 -2.07809 -1.17272 -2.45087 -223.168
lowerback 36.5193 -4.95089 2.83308
upperback 13.2626 -5.06387 -6.36935
thorax -4.44401 -1.496 -6.44342
lowerneck -15.0034 -2.48021 -5.25191
upperneck 12.8648 0.519868 -16.783
head 6.56508 -1.3573 -4.54174
rclavicle -3.18055e-015 4.77083e-014
rhumerus -4.71276 16.7296 -61.5755
rradius 120.767
rwrist 27.2937
rhand -24.2398 -13.4585
rfingers 7.12502
rthumb 2.24576 -43.4264
lclavicle -3.18055e-015 4.77083e-014
lhumerus 71.9354 -30.9257 48.6359
lradius 88.2362
lwrist -18.9906
lhand -40.4789 -4.39756
lfingers 7.12502
lthumb -13.4294 25.1495
rfemur -87.274 -27.6373 51.9624
rtibia 101.242
rfoot 20.1764 3.13318
rtoes 1.59796
lfemur -43.8392 25.8276 22.882
ltibia 87.7099
lfoot 7.188 -1.63755
ltoes -3.48513
